<?xml version="1.0" encoding="utf-8"?>
<!-- Generator: Adobe Illustrator 22.0.1, SVG Export Plug-In . SVG Version: 6.00 Build 0)  -->
<svg version="1.1" id="Layer_1" xmlns="http://www.w3.org/2000/svg" xmlns:xlink="http://www.w3.org/1999/xlink" x="0px" y="0px"
	 width="531.8px" height="188.2px" viewBox="0 0 531.8 188.2" style="enable-background:new 0 0 531.8 188.2;" xml:space="preserve"
	>
<style type="text/css">
	.st0{enable-background:new    ;}
	.st1{fill:#FFFFFF;}
</style>
<title>logo</title>
<g class="st0">
	<path class="st1" d="M27.3,16.4h21.3L40.3,47l31.6-30.6h27L62.8,49.9l17,42.9H56.9l-11-29.5L32.7,75.5l-4.6,17.4H6.8L27.3,16.4z"/>
	<path class="st1" d="M96.4,16.4h19.8L136,58.9l11.5-42.5h21.1L148,92.9h-18.6l-20.7-44l-11.8,44H75.8L96.4,16.4z"/>
</g>
<g class="st0">
	<path class="st1" d="M157.4,60c0-23.3,19-45,45.6-45c21.7,0,36.5,14.9,36.5,34.3c0,23.3-19,45-45.6,45
		C172.1,94.3,157.4,79.4,157.4,60z M217.8,50.9c0-9.7-5.9-16.9-16.7-16.9C187.8,34,179,47,179,58.4c0,9.7,5.9,16.9,16.7,16.9
		C209.2,75.3,217.8,62.3,217.8,50.9z"/>
</g>
<g class="st0">
	<path class="st1" d="M235.5,16.4h22l1.4,44.3l26.4-44.5h18.4l3,44.5l25.1-44.3h23.1l-46.2,77h-19l-3.5-43.5l-26.8,43.5h-18.9
		L235.5,16.4z"/>
	<path class="st1" d="M352.6,16.4h19.8l19.8,42.5l11.5-42.5h21.1l-20.5,76.5h-18.6l-20.7-44l-11.8,44H332L352.6,16.4z"/>
</g>
<g class="st0">
	<path class="st1" d="M45.2,95.1h17.1l9.8,63.3H53.7l-1.5-11.2H27.9l-7.5,11.2h-19L45.2,95.1z M50.8,133.7l-2.2-18.1l-11.8,18.1
		H50.8z"/>
</g>
<g class="st0">
	<path class="st1" d="M67.5,148l11.2-11.6c6.1,5.7,12.5,8.5,19.4,8.5c4.1,0,7.1-1.8,7.1-4.7c0-2.4-1.7-3.7-10.5-7.1
		c-10-3.8-16.4-8.1-16.4-17.3c0-12.5,11.3-21.4,26.7-21.4c11.1,0,19.8,3.6,25.8,9.3l-10.8,12c-4.8-4.1-10.2-6.9-16.6-6.9
		c-4.2,0-6.8,2-6.8,4.5s1.9,3.4,10.5,6.8c9.7,3.7,16.4,8.1,16.4,17.5c0,12.9-11.1,21.7-26.8,21.7C84.4,159.5,74.2,155.3,67.5,148z"
		/>
</g>
<g class="st0">
	<path class="st1" d="M118.1,148l11.2-11.6c6.1,5.7,12.5,8.5,19.4,8.5c4.1,0,7.1-1.8,7.1-4.7c0-2.4-1.7-3.7-10.5-7.1
		c-10-3.8-16.4-8.1-16.4-17.3c0-12.5,11.3-21.4,26.7-21.4c11.1,0,19.8,3.6,25.8,9.3l-10.8,12c-4.8-4.1-10.2-6.9-16.6-6.9
		c-4.2,0-6.8,2-6.8,4.5s1.9,3.4,10.5,6.8c9.7,3.7,16.4,8.1,16.4,17.5c0,12.9-11.1,21.7-26.8,21.7C135,159.5,124.8,155.3,118.1,148z"
		/>
</g>
<g class="st0">
	<path class="st1" d="M173.6,131.4c0-19.1,15.6-37,37.5-37c17.9,0,30,12.2,30,28.2c0,19.1-15.6,37-37.5,37
		C185.7,159.6,173.6,147.4,173.6,131.4z M223.3,124c0-8-4.9-13.9-13.7-13.9c-11,0-18.1,10.7-18.1,20c0,8,4.9,13.9,13.7,13.9
		C216.2,144,223.3,133.3,223.3,124z"/>
	<path class="st1" d="M238.5,132.2c0-18.6,15.1-37.9,39.3-37.9c12.8,0,21.7,6.2,25.5,15.9l-15.1,8.1c-2.5-5.1-6.5-8.1-12.7-8.1
		c-10.4,0-18.8,9.8-18.8,20.8c0,8,5.3,12.9,12.6,12.9c5.5,0,9.4-2.3,13.5-6.4l11.8,10.4c-6.1,6.9-14.4,11.8-26.3,11.8
		C250.8,159.7,238.5,149,238.5,132.2z"/>
	<path class="st1" d="M307.4,95.6h17.4l-16.9,62.9h-17.4L307.4,95.6z"/>
</g>
<g class="st0">
	<path class="st1" d="M346.7,95.1h17.1l9.8,63.3h-18.3l-1.5-11.2h-24.3l-7.5,11.2h-19L346.7,95.1z M352.3,133.7l-2.2-18.1
		l-11.8,18.1H352.3z"/>
</g>
<g class="st0">
	<path class="st1" d="M390.3,110.8h-18.9l4.1-15.3h55.1l-4,15.3h-18.9L395,158.5h-17.5L390.3,110.8z"/>
	<path class="st1" d="M429.6,95.6H480l-4,14.8h-33.1l-2.6,9.5h30l-3.7,13.7h-30l-2.7,10h33.6l-4,14.8h-50.9L429.6,95.6z"/>
	<path class="st1" d="M463.7,148l11.2-11.6c6.1,5.7,12.5,8.5,19.4,8.5c4.1,0,7.1-1.8,7.1-4.7c0-2.4-1.7-3.7-10.5-7.1
		c-10-3.8-16.4-8.1-16.4-17.3c0-12.5,11.3-21.4,26.7-21.4c11.1,0,19.8,3.6,25.8,9.3l-10.8,12c-4.8-4.1-10.2-6.9-16.6-6.9
		c-4.2,0-6.8,2-6.8,4.5s1.9,3.4,10.5,6.8c9.7,3.7,16.4,8.1,16.4,17.5c0,12.9-11.1,21.7-26.8,21.7C480.6,159.5,470.4,155.3,463.7,148
		z"/>
</g>
</svg>
