<?xml version="1.0" encoding="utf-8"?>
<!-- Generator: Adobe Illustrator 21.0.2, SVG Export Plug-In . SVG Version: 6.00 Build 0)  -->
<svg version="1.1" id="Layer_1" xmlns="http://www.w3.org/2000/svg" xmlns:xlink="http://www.w3.org/1999/xlink" x="0px" y="0px"
	 viewBox="0 0 278.7 79.7" style="enable-background:new 0 0 278.7 79.7;" xml:space="preserve">
<style type="text/css">
	.st0{fill:#F4F4F5;}
</style>
<path class="st0" d="M263.4,1.1v29.6l-23-29.6h-8.6h-5.8h-10.2l-9.8,32.4L195,1h-13.4l-10.8,32.6l-9.8-32.4h-16.4l2.5,7.5
	c-5.4-5.3-13-8.6-21.7-8.6C114,0,104.4,5.8,99.3,14.4V1.1H83.9v29.6l-23-29.6h-7.7h-6.8H34.8L15.5,23.8V1.1H0v56h15.5V42.6l5.7-6.3
	l14.1,20.8h11.1h7.5h7.8V26.4l23.9,30.7h13.6V44c5.1,8.5,14.6,14.2,26.1,14.2c15.8,0,28-11,30-25.2l8.1,24.4H177l11.2-32.2
	l11.3,32.2H213l12.9-38.8v38.4h15.4V26.4l23.9,30.7h13.6v-56H263.4z M32,25.2L46.4,8.8v37.3L32,25.2z M139.8,29.3
	c0,8.1-5.7,15-14.2,15c-8.5,0-14.3-7-14.3-15.1V29c0-8.1,5.7-15,14.2-15c8.6,0,14.4,7,14.4,15.1V29.3z M6.6,66.8h2.1l5.5,12.7h-2.3
	l-1.3-3h-6l-1.3,3H1L6.6,66.8z M9.7,74.5l-2.2-5l-2.2,5H9.7z M32.9,77.6l1.3-1.6c1.2,1,2.4,1.6,4,1.6c1.4,0,2.2-0.6,2.2-1.6v0
	c0-0.9-0.5-1.4-2.8-1.9c-2.7-0.6-4.2-1.4-4.2-3.8v0c0-2.2,1.8-3.7,4.3-3.7c1.8,0,3.3,0.6,4.6,1.6l-1.2,1.7c-1.1-0.8-2.3-1.3-3.4-1.3
	c-1.3,0-2.1,0.7-2.1,1.5v0c0,1,0.6,1.4,3,2c2.7,0.6,4.1,1.6,4.1,3.7v0c0,2.4-1.9,3.8-4.5,3.8C36.2,79.6,34.4,79,32.9,77.6z
	 M61.9,77.6l1.3-1.6c1.2,1,2.4,1.6,4,1.6c1.4,0,2.2-0.6,2.2-1.6v0c0-0.9-0.5-1.4-2.8-1.9c-2.7-0.6-4.2-1.4-4.2-3.8v0
	c0-2.2,1.8-3.7,4.3-3.7c1.8,0,3.3,0.6,4.6,1.6l-1.2,1.7c-1.1-0.8-2.3-1.3-3.4-1.3c-1.3,0-2.1,0.7-2.1,1.5v0c0,1,0.6,1.4,3,2
	c2.7,0.6,4.1,1.6,4.1,3.7v0c0,2.4-1.9,3.8-4.5,3.8C65.2,79.6,63.4,79,61.9,77.6z M91.3,73.2L91.3,73.2c0-3.6,2.7-6.6,6.6-6.6
	s6.6,2.9,6.6,6.5v0c0,3.5-2.7,6.5-6.6,6.5C94,79.7,91.3,76.7,91.3,73.2z M102.2,73.2L102.2,73.2c0-2.5-1.8-4.5-4.3-4.5
	c-2.5,0-4.2,2-4.2,4.4v0c0,2.4,1.8,4.5,4.3,4.5C100.4,77.6,102.2,75.6,102.2,73.2z M124.3,73.2L124.3,73.2c0-3.6,2.7-6.6,6.5-6.6
	c2.3,0,3.7,0.8,4.9,2l-1.4,1.6c-1-0.9-2.1-1.6-3.5-1.6c-2.4,0-4.2,2-4.2,4.4v0c0,2.5,1.7,4.5,4.2,4.5c1.5,0,2.5-0.6,3.6-1.6l1.4,1.4
	c-1.3,1.4-2.8,2.2-5.1,2.2C127,79.7,124.3,76.8,124.3,73.2z M155.9,66.9h2.2v12.6h-2.2V66.9z M183.6,66.8h2.1l5.5,12.7h-2.3l-1.3-3
	h-6l-1.3,3H178L183.6,66.8z M186.7,74.5l-2.2-5l-2.2,5H186.7z M212.4,68.9h-4v-2.1h10.2v2.1h-4v10.6h-2.2V68.9z M238.6,66.9h9.3v2
	h-7.1v3.3h6.3v2h-6.3v3.4h7.2v2h-9.4V66.9z M267.5,77.6l1.3-1.6c1.2,1,2.4,1.6,4,1.6c1.4,0,2.2-0.6,2.2-1.6v0c0-0.9-0.5-1.4-2.8-1.9
	c-2.7-0.6-4.2-1.4-4.2-3.8v0c0-2.2,1.8-3.7,4.3-3.7c1.8,0,3.3,0.6,4.6,1.6l-1.2,1.7c-1.1-0.8-2.3-1.3-3.4-1.3
	c-1.3,0-2.1,0.7-2.1,1.5v0c0,1,0.6,1.4,3,2c2.7,0.6,4.1,1.6,4.1,3.7v0c0,2.4-1.9,3.8-4.5,3.8C270.8,79.6,269,79,267.5,77.6z"/>
</svg>
